<svg xmlns="http://www.w3.org/2000/svg" width="18" height="19" viewBox="0 0 18 19" fill="none"><path fill-rule="evenodd" clip-rule="evenodd" d="M12.333.917a.75.75 0 0 1 .75.75V5a.75.75 0 0 1-1.5 0V1.667a.75.75 0 0 1 .75-.75Zm-6.666 0a.75.75 0 0 1 .75.75V5a.75.75 0 0 1-1.5 0V1.667a.75.75 0 0 1 .75-.75ZM.75 7.5a.75.75 0 0 1 .75-.75h15a.75.75 0 0 1 0 1.5h-15a.75.75 0 0 1-.75-.75Z" fill="#999"/><path fill-rule="evenodd" clip-rule="evenodd" d="M.75 5a2.416 2.416 0 0 1 2.417-2.417h11.666A2.416 2.416 0 0 1 17.25 5v10.833a2.416 2.416 0 0 1-2.417 2.417H3.167A2.416 2.416 0 0 1 .75 15.833V5Zm2.417-.917A.916.916 0 0 0 2.25 5v10.833c0 .507.41.917.917.917h11.666c.507 0 .917-.41.917-.917V5a.916.916 0 0 0-.917-.917H3.167Z" fill="#999"/><path d="M6 11a1 1 0 1 1-2 0 1 1 0 0 1 2 0Zm4 0a1 1 0 1 1-2 0 1 1 0 0 1 2 0Zm4 0a1 1 0 1 1-2 0 1 1 0 0 1 2 0Zm-4 3a1 1 0 1 1-2 0 1 1 0 0 1 2 0Zm-4 0a1 1 0 1 1-2 0 1 1 0 0 1 2 0Z" fill="#999"/></svg>