<svg width="26" height="27" viewBox="0 0 26 27" fill="none" xmlns="http://www.w3.org/2000/svg">
<rect y="0.5" width="26" height="26" rx="13" fill="#E8FFFE" fill-opacity="0.5"/>
<path fill-rule="evenodd" clip-rule="evenodd" d="M13.0001 14.7734C13.7365 14.7734 14.3334 14.1764 14.3334 13.44C14.3334 12.7036 13.7365 12.1067 13.0001 12.1067C12.2637 12.1067 11.6667 12.7036 11.6667 13.44C11.6667 14.1764 12.2637 14.7734 13.0001 14.7734Z" stroke="#15AABE" stroke-width="1.5" stroke-linecap="round" stroke-linejoin="round"/>
<path fill-rule="evenodd" clip-rule="evenodd" d="M18.2027 17.6421V17.6421C16.5327 17.3081 14.81 17.3494 13.158 17.7621L13 17.8021C11.244 18.2408 9.41267 18.2848 7.638 17.9294L7.536 17.9088C7.224 17.8468 7 17.5728 7 17.2554V10.0294C7 9.60876 7.38467 9.29343 7.79733 9.37543V9.37543C9.46733 9.70943 11.19 9.6681 12.842 9.25543L13.1573 9.17676C14.8093 8.7641 16.5327 8.72276 18.202 9.05676L18.4633 9.10876C18.776 9.17143 19 9.44476 19 9.76276V16.9888C19 17.4094 18.6153 17.7248 18.2027 17.6421V17.6421Z" stroke="#15AABE" stroke-width="1.5" stroke-linecap="round" stroke-linejoin="round"/>
<path d="M17.0001 10.8841C16.5561 10.8434 16.1114 10.8254 15.6667 10.8367" stroke="#15AABE" stroke-width="1.15263" stroke-linecap="round" stroke-linejoin="round"/>
<path d="M9 16.1194C9.444 16.1601 9.88867 16.1774 10.3333 16.1667" stroke="#15AABE" stroke-width="1.15263" stroke-linecap="round" stroke-linejoin="round"/>
</svg>
