<svg width="26" height="27" viewBox="0 0 26 27" fill="none" xmlns="http://www.w3.org/2000/svg">
<rect y="0.5" width="26" height="26" rx="13" fill="#E8FFFE" fill-opacity="0.5"/>
<path d="M9.66675 10.8333V8.16667C9.66675 7.79867 9.96541 7.5 10.3334 7.5H15.6667C16.0347 7.5 16.3334 7.79867 16.3334 8.16667V10.8333" stroke="#15AABE" stroke-width="1.15263" stroke-linecap="round" stroke-linejoin="round"/>
<path d="M9.66667 16.8333H8.33333C7.59667 16.8333 7 16.2366 7 15.4999V12.1666C7 11.4299 7.59667 10.8333 8.33333 10.8333H17.6667C18.4033 10.8333 19 11.4299 19 12.1666V15.4999C19 16.2366 18.4033 16.8333 17.6667 16.8333H16.3333" stroke="#15AABE" stroke-width="1.15263" stroke-linecap="round" stroke-linejoin="round"/>
<path fill-rule="evenodd" clip-rule="evenodd" d="M9.66675 14.7H16.3334V18.8333C16.3334 19.2013 16.0347 19.5 15.6667 19.5H10.3334C9.96541 19.5 9.66675 19.2013 9.66675 18.8333V14.7Z" stroke="#15AABE" stroke-width="1.5" stroke-linecap="round" stroke-linejoin="round"/>
<path d="M9.66675 12.8333H10.3334" stroke="#15AABE" stroke-width="1.5" stroke-linecap="round" stroke-linejoin="round"/>
</svg>
