<?xml version="1.0" encoding="utf-8"?>
<!-- Generator: Adobe Illustrator 26.0.1, SVG Export Plug-In . SVG Version: 6.00 Build 0)  -->
<svg version="1.1" id="flag-icons-sa" xmlns="http://www.w3.org/2000/svg" xmlns:xlink="http://www.w3.org/1999/xlink" x="0px"
	 y="0px" viewBox="0 0 640 480" style="enable-background:new 0 0 640 480;" xml:space="preserve">
<style type="text/css">
	.st0{fill-rule:evenodd;clip-rule:evenodd;fill:#009A4F;}
	.st1{fill-rule:evenodd;clip-rule:evenodd;fill:#FFFFFF;}
</style>
<g>
	<g>
		<g transform="translate(80) scale(.9375)">
			<path className="st0" d="M-85.4,0h682.7v512H-85.4V0z"/>
			<path className="st1" d="M65.4,145.1c-0.8,12-2,33,8.3,35.2c12.3,1.2,5.5-20.8,10-24.8c0.8-2,2.3-2,2.4,0.5v18.7c0,6,4,7.8,7,9
				c3.2-0.2,5.4,0,6.6,3l1.6,32.3c0,0,7.4,2.2,7.8-18.1c0.3-12-2.4-21.9-0.8-24.2c0-2.3,3-2.4,5-1.3c3.2,2.2,4.6,5,9.6,4
				c7.6-2.2,12.2-5.9,12.3-11.7c-0.2-5.7-1.3-11.3-3.5-16.6c0.4-1-1.4-3.7-1-4.7c1.3,2.2,3.4,2,3.8,0c-1.3-4.2-3.3-8.3-6.5-10
				c-2.7-2.4-6.7-2-8,3c-0.8,5.7,2,12.4,6.1,18c0.9,2.1,2.1,5.7,1.6,8.9c-2.2,1.3-4.4,0.7-6.3-1.2c0,0-6-4.5-6-5.6
				c1.6-10.2,0.3-11.4-0.6-14.3c-0.6-3.9-2.5-5.2-4-7.8c-1.5-1.6-3.5-1.6-4.5,0c-2.7,4.6-1.4,14.5,0.5,19c1.4,4.1,3.5,6.7,2.5,6.7
				c-0.8,2.3-2.5,1.7-3.8-1c-1.5-5.7-2.2-11.5-2.1-17.4c-0.5-4.6-1.1-14.4-4.2-17c-1.8-2.4-4.5-1.2-5.5,1c-0.3,4.5-0.2,8.9,0.3,13.4
				c2,7.4,2.7,14,3.7,21.5c0.3,10.1-5.8,4.4-5.5-0.7c1.3-6.4,1.2-13-0.3-19.4c-1-2.6-2.1-3.2-4.6-2.8c-1.9,0-6.8,5.3-8.2,14.3
				c0,0-1.2,4.6-1.7,8.7c-0.7,4.6-3.7,8-5.9-0.6c-1.8-6.3-3-21.6-6-18L65.4,145.1z"/>
			<path className="st1" d="M98.9,194.2l-32,15.4c0.3-7.3,15.1-20.4,25.3-20.5C98.7,189.2,97.1,191.6,98.9,194.2L98.9,194.2z"/>
			<path className="st1" d="M93.2,204.2c-16.8,43.5,39.5,49.6,45.8,1.8c0.6-2,3-3.9,3.4-0.7c-1.3,43.3-43.6,46.2-50.8,32.6
				c-1.7-4.7-2.5-9.6-2.5-14.6c-1-8.5-5.5-5.2-6.2,3.2c-0.7,4.7-0.5,6-0.5,10.5c2.2,34.2,56.7,19.5,65.6-8.7
				c4.7-15.6-0.8-27.1,1.7-27.1c5.4,5.8,13,0.8,14.7-1.2c0.7-1,2.5-1.7,3.7-0.4c4.2,3,11.6,1.6,13.2-3.7c0.9-5.3,1.6-10.7,1.8-16.2
				c-3.5,1-6,1.7-6.3,3.2l-0.7,4.6c-0.3,1.5-3.2,1.5-3.4-0.4c-1.3-6-6.7-6.7-10,2.5c-2.1,1.8-6.1,2.2-6.5-0.5c0.5-6.2-2-7-7-4.1
				l-4.8-36.2c2,0,4,1.5,5.9-0.9c-2-6.5-6.5-19.7-9-20.7c-1.1-1.4-2.1-0.5-3.7-0.1c-2.6,0.8-5,3-4.2,7.4c3,18.8,5,33.1,8.1,52
				c0.5,2.1-1.3,5-3.7,4.7c-4-2.7-5-8.2-12-8c-5,0-10.6,5.5-11.3,10.7c-0.9,4.2-1.2,8.7,0,12.3c3.5,4.2,7.7,3.8,11.4,2.9
				c3-1.3,5.5-4.3,6.6-3.6c0.7,0.9,0.1,10.9-14.3,18.5c-8.7,4-15.7,4.8-19.4-2.3C96.5,217.2,99,200.3,93.2,204.2z"/>
			<path className="st1" d="M164.9,160c3.3-1.2,19.3-19.6,19.3-19.6l-2.4-2c-0.9-0.7-0.8-1.5,0-2.2c4-2.4,2.7-7.4,0.7-9.8
				c-2.8-1.3-6-1.3-8.7,0.1c-2.8,2.7-3.4,7-1.2,9.6c2.1,1,4.2,3.2,2.8,4.4c-6.6,7-24.5,19.1-22.4,19.5
				C153.4,160.6,164.5,160.6,164.9,160L164.9,160z M67.9,225c-6,9.6-6.5,23.9-3.2,28.2c1.8,2,4.7,2.9,6.8,2.2
				c3.8-1.6,5.5-9.3,4.6-12c-1.3-2-2.3-2.3-3.6-0.7c-2.6,5.4-3.7,1.7-4-1.3c-0.3-5.1,0-10.2,0.8-15.2C70,222,69.3,223.2,67.9,225z
				 M325,209.7c-5.8-12.6-13.9-25-16.4-29.7c-7.8-12.3-16.1-24.3-24.8-36c-6.2-7.4,10.2,3.1-2-11.7l-8.9-7.5c-2-1.4-6.8-4-7.6,0.2
				c-0.4,3.8-0.2,5.8,0.4,8.9c0.5,2,3.5,5.5,5,7.5c20.5,27.2,38.5,56.1,53.8,86.5C327.1,226.6,326.5,211.8,325,209.7z"/>
			<path className="st1" d="M299.5,251.5c-1.2,1.3,2.8,6.8,8,6.8c8.6-1,16.2-5.8,23.2-18.6c2.8-4.3,4.7-9.1,5.3-14.2
				c0.8-24.3-1.1-48.6-5.8-72.4c-0.3-2,0-4.4,0.2-5c0.6-0.7,2.5,0,3.5-1.7c1.5-1.5-4-14-7-18.7c-1-2.2-1.5-3.6-3.3,0.2
				c-2.2,4.2-3.2,8.9-3,13.6c4.1,28.5,5.4,53.4,8,81.9c0.3,2.8-0.1,6.8-2,8.4C319.1,240.2,309.8,246.9,299.5,251.5L299.5,251.5z
				 M416,251.4c-6.2,3.6-6.2,7.7-1.2,7.8c8.6-1,18.8-1.7,25.8-12.3c2.5-5,3.9-10.4,4.2-16c1.3-23.9-0.3-47.9-4.7-71.4
				c-0.2-2-1.1-6.7-0.8-7.3c0.6-1.4,3.4,0.1,4.4-1.5c1.4-1.5-7.3-12.7-10.4-17.5c-1-2.2-1.4-3.6-3.3,0.2c-2,4.2-2.6,9-1.8,13.6
				c4.6,31,8,54.2,8.7,81.6c-0.4,2.6-0.5,4-1.7,7.3c-2.7,3.4-5.7,7.8-8.5,9.9C423.9,247.8,417.9,249.8,416,251.4L416,251.4z"/>
			<path className="st1" d="M420.6,223.7c0-7.3,0.1-13.5-0.1-19c-0.1-4.7-1.1-9.3-3-13.5c-1.8-4.1-0.7-7.4-1.6-11.8
				c-0.8-4.4-0.6-11-1.8-16.1c-0.4-2-1.4-8.5-1.1-9.2c0.5-1.4,2.4,0,3.4-1.6c1.4-1.5-5-18-8.2-22.7c-1.1-2.1-3.3-1.4-5.8,2
				c-2.5,2.3-1.6,7.4-0.6,12.3c6.1,32.3,10.8,61.6,9.8,92.3C411.2,239,420.6,228.6,420.6,223.7L420.6,223.7z M374.9,183.7
				c-3.9-0.2-12-7.7-14.4-12c-0.8-2.1-0.6-4.5,0.4-6.5c1.5-1,3.7-2,5.4-1c0,0,1.7,2.4,1.4,2.7c2,1,3,0.5,3.2-0.4
				c0.1-1.5-0.6-2.4-0.6-4c0.9-4.6,6-5.3,8-2.4c1.4,1.8,2,5.5,2.1,8c0,1.3-2-0.2-3.3,0c-1.1,0.4-1.4,1.8-1.5,3
				C375.4,174.4,375,179.7,374.9,183.7L374.9,183.7z M303.1,231.7c1-9.8-0.4-27.3-0.5-33.1c-0.5-14.9-1.8-29.8-3.7-44.6
				c-1.2-8.4,3.4,0.9,2.8-4c-1.5-8.3-6.1-14-11.6-21.5c-1.7-2.5-1.7-3-4.4,0.6c-3,6.7-0.4,11.4,0.4,16.7c3.9,17.2,6.2,33,7.3,48.7
				c1.2,16.3,1.3,32.7,0.4,49C296.8,243.6,301.4,238.8,303.1,231.7L303.1,231.7z"/>
			<path className="st1" d="M433.9,216c-6.9-11.6-17.2-24-20-28.7c-9.3-12.9-19-25.6-29.2-37.8c-8.5-9,4-1.5-1.6-8.5
				c-4.7-5.1-6-6.8-10.1-9.9c-2-1.3-3.2-3.8-4,0.5c-0.3,3.7-0.4,7.5-0.2,11.2c0,1.7,1.8,5,3.4,7c20.7,25.5,43.4,51.5,61.6,84.2
				c2.6-1.3,1.7-16,0-18H433.9z"/>
			<path className="st0" d="M122.5,194.7c-0.5,0.9-1.6,2-1.2,3.1c0.7,1,1.4,1.3,2.6,1.3c1.1,0,2.7,0.3,3-0.3c0.6-0.7,1-2,0.6-3.3
				C126.3,192.5,123.1,193.7,122.5,194.7z"/>
			<path className="st1" d="M354.1,362.5c9.2,0.4,15.2,0.5,23.3,1.4l9.6-1c10.6-1,11,15.1,11,15.1c0,9.5-3.7,10-8.4,11
				c-2.7,0.4-4-1.6-5.5-3.6c-2.3,0.7-4.7,0.9-7,0.4c-3.9-0.2-7.7-0.2-11.5-0.5c-4-0.3-6.2,0.5-10.3,0.1c-0.8,1.3-2,3.1-4.4,2.6
				c-2-0.3-4.5-6-3.8-10.5c1.5-3.2,1-2.1,1-3.5c-37.6-1-75.5-2.7-112.3-2.2c-28.8,0.1-57.2,1.3-85.7,2.5
				c-15.2-0.2-26.8-2.6-34.8-14.3c0.8,0,38.8,2.1,49.9,1.4c20.5-0.2,39.3-1.9,60.2-2.5c41.2,0.7,82.1,0.7,123.3,3.6
				c-4-2.7-4-9,2-10.6c0.5-0.4,0.8,3.1,1.7,3C357.3,354.6,355.1,361.2,354.1,362.5L354.1,362.5z M188.5,135.3
				c-6.2,17.8,3.6,37.4,10.4,35.5c5,2,8-7.4,10-17.6c1.5-2.9,2.5-3.2,3.2-1.7c-0.2,13.6,1,16.7,4.5,20.8c7.8,6,14.3,0.8,14.8,0.3
				l6-6.1c1.4-1.5,3.2-1.5,5.1-0.3c1.9,1.7,1.6,4.6,5.6,6.6c3.4,1.4,10.5,0.4,12.2-2.5c2.2-3.9,2.8-5.2,3.8-6.6
				c1.6-2.1,4.3-1.2,4.3-0.5c-0.3,1.2-1.9,2.3-0.8,4.5c2,1.4,2.4,0.5,3.5,0.2c4-2,7-10.6,7-10.6c0.1-3.2-1.7-3-2.9-2.2l-3.1,2.1
				c-2,0.3-5.7,1.6-7.6-1.3c-1.9-3.4-1.9-8.3-3.3-11.8c0-0.2-2.6-5.5-0.2-5.8c1.2,0.2,3.7,0.9,4.1-1.2c1.2-2.1-2.6-8-5.3-11
				c-2.3-2.5-5.5-2.8-8.6-0.2c-2.2,2-1.9,4.2-2.3,6.3c-0.8,3.1,0,6.3,2,8.7c2.2,4.2,6.1,9.7,4.8,17.5c0,0-2.3,3.6-6.3,3.1
				c-1.7-0.3-4.4-1-5.8-11.8c-1.1-8,0.2-19.4-3.2-24.7c-1.3-3.3-2.2-6.4-5.2-0.9c-0.8,2.2-4.3,5.5-1.8,12.2c2.4,6,3.1,12.6,2,19
				c-1.5,2.2-1.8,2.9-3.7,5c-2.6,3-5.5,2.2-7.7,1.1c-2-1.3-3.6-2-4.6-6.5c0.2-7,0.6-18.5-0.7-20.9c-1.9-3.8-5-2.4-6.3-1.2
				c-5.9,6.6-9.9,14.7-11.5,23.5c-1.8,5.8-3.7,4.1-5,1.8C192.8,155.1,192.4,131.4,188.5,135.3L188.5,135.3z"/>
			<path className="st1" d="M207.3,174.1c2.9-2,1.6-3.4,5.8,0.8c5.4,9.6,8.6,20.3,9.2,31.3c-0.2,2.6,1.6,4.2,2.5,3.6
				c0.4-6,15.1-14.4,28.6-15.6c2-0.5,1-4.4,1.3-6.4c-0.8-7.5,4.2-14.3,11.2-14.8c9.6,1.4,12.8,6.5,13,14.2
				c-1.1,15-16.7,17.5-25.4,18.7c-1.3,0.5-1.9,1.1,0,1.8l36.6,0.2l1.9,1c0.2,1-0.6,0.2-2,2.6c-2,3.5-3.3,7.5-3.7,11.5
				c-10.9,3.6-22.2,5-33.6,6.5c-4,2-6,4.7-5.2,7.7c1.4,3.3,10.2,6.7,10.2,6.8c1.7,1,3.6,3.5-0.5,8.6c-17.8-0.8-31.7-8.4-36.5-19.1
				c-1.4-1.1-3,0-4,1.4c-7,9-13.8,17-25.7,21.4c-7,1.8-14.3-1.1-17.7-5.7c-2.3-2.7-2.2-5.6-3-6.2c-3.9,1.7-36.9,15.7-32.7,9.1
				c8-8.5,22-14.9,34.2-23.3c0.9-2.9,2.5-12.5,7.3-15.6c0.3,0-0.7,5.6-0.6,8c0,2-0.2,2.7,0.2,2.2c0.9-0.5,15.7-12.2,17-15.8
				c1.4-2,0.3-7.2,0.3-7.4c-2.8-7.2-6.7-7.8-8.1-11.4c-1.3-4.7-0.7-10.1,2-11.7c2.4-2.1,5.2-1.9,7.9,0.5c3,2.7,5.6,8,6.4,11.9
				c-0.5,1.5-4-1-5-0.3c1.9,2.2,3.2,4.9,3.7,7.8c2,8.2,1.4,11.4-0.6,16.7c-6.6,13.9-15,18-22.4,23.2c-0.2,0-0.3,3.5,2.4,5.4
				c1,1,4.9,1.5,9.4,0c9.6-5.3,17.4-13.5,22.3-23.3c0.8-7.5,0-15.1-2.4-22.2c-2.9-6.7-6.3-16.2-6.3-16.4
				C205.2,177.6,205.5,176.2,207.3,174.1L207.3,174.1z M111.5,135.5c4.2,2,12.2,1.1,11.8-5.7l-0.2-3.1c-0.8-2-3.2-1.5-3.7,0.5
				c-0.2,0.7,0.3,1.8-0.3,2.1c-0.4,0.4-1.7,0.2-1.7-1.7c0-0.6-0.4-1.2-0.7-1.6c-0.2-0.2-0.4-0.2-0.9-0.2c-0.6,0-0.6,0.1-0.9,0.6
				c-0.1,0.5-0.3,1-0.3,1.6c0,0.7-0.4,0.9-0.8,1c-0.6,0-0.5,0-1-0.2c-0.2-0.3-0.5-0.4-0.5-1l-0.3-1.6c-0.2-0.3-0.6-0.5-1-0.6
				c-2.3,0-2.5,2.7-2.3,3.7C108.5,129.5,108.4,134.2,111.5,135.5L111.5,135.5z"/>
			<path className="st1" d="M235,187.7c4.2,2,14.3,0.9,11.8-5.6l-0.2-3.2c-0.9-2-3.2-1.5-3.7,0.6c-0.2,0.6,0.3,1.7-0.4,2
				c-0.3,0.4-1.7,0.2-1.6-1.6c0-0.6-0.4-1.3-0.7-1.7c-0.3-0.1-0.4-0.2-1-0.2c-0.5,0-0.5,0.2-0.8,0.7c-0.2,0.5-0.3,1-0.3,1.6
				c-0.1,0.6-0.4,0.8-0.9,1c-0.5,0-0.4,0-0.8-0.3c-0.3-0.3-0.6-0.4-0.6-0.9l-0.3-1.6c-0.2-0.3-0.6-0.5-1-0.6c-2.3,0-2.5,2.6-2.4,3.6
				c-0.1,0.2-0.2,5,3,6.2H235z M307,166.1c4.2,2,12.1,1.1,11.8-5.6l-0.2-3.2c-0.9-2-3.2-1.5-3.7,0.5c-0.2,0.7,0.3,1.8-0.4,2.2
				c-0.3,0.3-1.7,0.1-1.6-1.8c0-0.6-0.4-1.2-0.7-1.6c-0.3-0.2-0.4-0.2-1-0.2c-0.5,0-0.5,0.2-0.8,0.7l-0.3,1.5c-0.1,0.7-0.4,1-0.9,1
				s-0.4,0-0.8-0.2c-0.3-0.3-0.6-0.4-0.6-0.9s-0.1-1.3-0.3-1.7c-0.2-0.3-0.6-0.4-1-0.5c-2.3,0-2.5,2.6-2.4,3.6
				c-0.1,0.2-0.2,4.9,3,6.2H307z M344.3,220.4c-7.3,8.3-4.1,22-2.4,25c2.4,4.8,4.3,7.9,9,10.3c4.3,3.1,7.7,1.2,9.5-1
				c4.3-4.5,4.4-16,6.4-18.2c1.4-4.2,5-3.5,6.7-1.6c1.6,2.3,3.7,4.1,6.2,5.3c4,3.5,8.8,4.2,13.6,1c3.2-1.9,5.3-4.2,7.2-8.9
				c2-5.6,1-31.6,0.5-47l-4.2-21.5c0-0.2-0.5-10.2-1-12.5c0-1-0.3-1.3,0.7-1.2c1.1,1,1.2,1,2,1.3c1,0.2,2-1.7,1.3-3.3l-10-18.6
				c-0.8-0.8-1.9-1.6-3.2,0.2c-1.6,1.4-2.4,3.4-2.4,5.5c0.3,4.4,1,8.9,1.3,13.3l4,22.6c1.3,16,1.6,29.2,2.9,45.3
				c-0.2,6.8-2.3,12.7-4.3,13.6c0,0-3,1.7-5-0.2c-1.5-0.6-7.4-9.9-7.4-9.9c-3-2.7-5-2-7.1,0c-6,5.8-8.6,16.4-12.7,23.8
				c-1,1.7-4,3-7.2-0.1C340.5,232.3,345.3,216.3,344.3,220.4L344.3,220.4z M308.9,126.7c3.8,1.5,6.4,9.2,5.6,13
				c-0.8,4.5-2.8,9.5-4.2,8.9c-1.6-0.6,1-4.6-0.5-8.8c-0.8-2.8-6-7.8-5.4-9.2c-1-3.1,2.2-4.5,4.5-4V126.7z"/>
			<path className="st1" d="M356.5,225c0.7-9.2-0.6-14.8-0.8-20.2s-6.1-46.6-7.3-50.6c-1.5-7.8,5.7-1,4.9-5.6
				c-2.5-5.6-8.6-13.9-10.5-18.8c-1.2-2-0.7-4-3.3-0.5c-2.2,6.1-3,12.7-2.3,19.2c6.2,32.3,12.5,59.1,11.5,89.8
				C351.7,238.3,355,231.6,356.5,225L356.5,225z M420.9,139.7c3.5,1.7,5.5,11.3,5.1,14c-0.7,5-2.5,10.4-3.8,9.7
				c-1.5-0.6,0.3-7.4-0.4-9.5c-0.8-3-5.5-8.4-5-10C415.8,140.5,418.8,139.1,420.9,139.7L420.9,139.7z M165.2,207.6
				c3.3,1.3,5.3,8.3,5,10.3c-0.8,3.7-2.5,7.7-3.8,7.1c-1.3-0.4,0.3-5.4-0.3-7c-0.3-3.7-4.9-5.7-4.8-7.3
				C160.5,207.7,163.3,207.2,165.2,207.6L165.2,207.6z"/>
			<path className="st0" d="M244.8,218.2c4.2,0.2,6.3,3.6,2.4,5c-4,1.3-7.7,2.4-7.8,8c1.5,8-2,5.2-4,4.2c-2.4-1.8-9.2-6-10.2-15
				c-0.1-2.1,1.6-4,4.3-4C233.5,217.5,239.5,217.6,244.8,218.2z"/>
			<path className="st1" d="M77.3,124.4c4.8,1.4,5.1,8.6,4.8,10.7c-0.7,3.8-2.4,7.9-3.6,7.4c-1.4-0.5,0-5.7-0.7-7.3
				c-0.7-2.2-4.8-6.4-4.4-7.6C72.5,125.1,75.4,123.9,77.3,124.4z M173.2,158c-3.8,2-5.2,8-2.9,11.6c2.2,3,5.6,1.9,6,1.9
				c3.7,0.4,5.9-6.9,5.9-6.9s0.1-2-4.2,1.9c-1.9,0.3-2-0.4-2.5-1.4c-0.5-1.9-0.3-3.9,0.5-5.7C176.8,157.6,175.3,156.8,173.2,158
				L173.2,158z M201.2,121.6c-2,1.3-5.7,5.2-5.8,9.6c-0.1,2.5-0.6,2.5,1,4c1.3,1.8,2.4,1.7,4.8,0.4c1.2-0.8,2-2,2.3-3.4
				c0.6-2.8-3,1.4-3.4-1.8c-0.8-3,1.5-4.2,3.7-7C203.8,121.4,203.8,120.1,201.2,121.6L201.2,121.6z M223.6,125.6
				c-0.9,3.6-1.4,7.4-1.6,11.1c-0.6,2.8,3,4,4.5,0.4c2.4-6.5,2.4-9.3,2.6-12C228.4,120.8,225.5,120.9,223.6,125.6z M365.6,197.9
				c0.4-0.5,20-14.4,20-14.4c2-0.7,1.5,7.2,0.6,7.1c-6.1,5.9-13.1,10.7-20.7,14.3c-1,0.7-1.9-5.3,0-7L365.6,197.9z M383.3,197.7
				c3.5,1.7,4.9,11.8,4.5,14.5c0,5.4-3.3,9.6-4.7,9c-1.4-0.7,0.2-6.7-0.5-8.8c-0.8-3-3.7-8.5-3.2-10.1
				C378.4,198.9,381.2,197.1,383.3,197.7L383.3,197.7z M267.3,241.1c1.6-1.9,3.5-3.5,5.6-4.9c2-1,3.8,0.8,3.7,0.7
				c0.3,2-1.2,3.7-0.7,6.3c0.4,1,0.7,2.2,2.6,1.8c3.1-2.5,6-2.7,9-2.8c2.5,0.1,2.6,4.2,1,4.2c-5.7,1.2-8.2,2.8-12.3,4.3
				c-2,1.2-3.6-0.3-3.6-0.4s-1.1-1.1-0.4-3.7c0.2-2-0.6-3.2-2.4-3c-1.2,0.8-2.4,1.2-3-0.3C266.5,242.3,266.4,241.7,267.3,241.1
				L267.3,241.1z M403.9,246.5c0.8,1,1.4,2-0.1,3.8l-3.7,3.2c-0.6,1-1,2.8,1,3.3c3.6,1,12-4.5,12-4.6c1.4-1,1-3,0.8-3
				c-0.8-0.9-2.6-0.3-3.8-0.5c-0.6,0-2.5-0.2-1.6-2c0.7-0.9,1.2-1.9,1.6-2.9c0.5-1.2,0-2-2-2.7c-2.1-0.4-3-0.2-5.3,0
				c-1.2,0.2-1.6,0.8-1.9,2.3c0.1,2.3,1.5,2.2,3,3V246.5z"/>
			<path className="st0" d="M268,189.7c-0.5,1-2.3,1-4,0s-2.7-2.6-2.1-3.5s2.3-0.9,4,0S268.5,188.8,268,189.7z M179,136.1
				c-1,0.3-2.4-0.6-3-2s-0.3-2.6,0.7-2.9s2.3,0.7,3,2c0.7,1.3,0.3,2.7-0.8,3L179,136.1z"/>
			<path className="st0" d="M355.1,375c9.4,0.4,18.2,0,27.5,0.5c1.7,1.5,0.5,5-0.6,4.8l-7.8-0.3c-0.1-3-7.7-2.5-7.5,0.1
				c-4.1,0.5-7.8-0.1-12-0.3C353.5,378.3,353.7,375.6,355.1,375L355.1,375z"/>
		</g>
	</g>
</g>
</svg>
