<?xml version="1.0" encoding="utf-8"?>
<!-- Generator: Adobe Illustrator 26.0.1, SVG Export Plug-In . SVG Version: 6.00 Build 0)  -->
<svg version="1.1" id="flag-icons-us" xmlns="http://www.w3.org/2000/svg" xmlns:xlink="http://www.w3.org/1999/xlink" x="0px"
	 y="0px" viewBox="0 0 640 480" style="enable-background:new 0 0 640 480;" xml:space="preserve">
<style type="text/css">
	.st0{fill-rule:evenodd;clip-rule:evenodd;fill:#BD3D44;}
	.st1{fill-rule:evenodd;clip-rule:evenodd;fill:#FFFFFF;}
	.st2{fill-rule:evenodd;clip-rule:evenodd;fill:#192F5D;}
</style>
<g>
	<g>
		<path className="st0" d="M0,0h640v37H0V0z M0,73.9h640v37H0V73.9z M0,147.7h640v37H0V147.7z M0,221.5h640v37H0V221.5z M0,295.5h640
			v36.8H0V295.5z M0,369.2h640v37H0V369.2z M0,443h640v37H0V443z"/>
		<path className="st1" d="M0,37h640v36.9H0V37z M0,110.8h640v36.9H0V110.8z M0,184.6h640v37H0V184.6z M0,258.5h640v37H0V258.5z
			 M0,332.3h640v37H0V332.3z M0,406.1h640v37H0V406.1z"/>
	</g>
	<path className="st2" d="M0,0h364.8v258.5H0V0z"/>
	<path className="st1" d="M30.4,11l3.4,10.3h10.6l-8.6,6.3l3.3,10.3l-8.7-6.4l-8.6,6.3L25,27.6l-8.7-6.3h10.9L30.4,11z M91.2,11
		l3.3,10.3h10.8l-8.7,6.3l3.2,10.3l-8.6-6.4l-8.7,6.3l3.3-10.2l-8.6-6.3h10.6L91.2,11z M152,11l3.3,10.3H166l-8.6,6.3l3.3,10.3
		l-8.7-6.4l-8.7,6.3l3.3-10.2l-8.7-6.3h10.8L152,11z M212.8,11l3.3,10.3h10.8l-8.7,6.3l3.3,10.3l-8.7-6.4l-8.7,6.3l3.4-10.2
		l-8.8-6.3h10.7L212.8,11z M273.6,11l3.3,10.3h10.7l-8.6,6.3l3.3,10.3l-8.7-6.4l-8.7,6.3l3.3-10.2l-8.6-6.3h10.7L273.6,11z
		 M334.4,11l3.3,10.3h10.8l-8.8,6.3l3.4,10.3l-8.7-6.4l-8.7,6.3l3.4-10.2l-8.8-6.3h10.8L334.4,11z M60.8,37l3.3,10.2H75l-8.7,6.2
		l3.2,10.3L61,57.4l-8.7,6.3l3.1-10.3L47,47.2h10.7L60.8,37z M121.6,37l3.4,10.2h10.7l-8.8,6.2l3.4,10.3l-8.7-6.3l-8.7,6.3l3.3-10.3
		l-8.7-6.2h10.8L121.6,37z M182.4,37l3.3,10.2h10.8l-8.7,6.2l3.3,10.3l-8.7-6.3l-8.7,6.3l3.3-10.3l-8.6-6.2H179L182.4,37z M243.2,37
		l3.4,10.2h10.7l-8.8,6.2l3.4,10.3l-8.7-6.3l-8.6,6.3l3.2-10.3l-8.7-6.2H240L243.2,37z M304,37l3.3,10.2h10.8l-8.7,6.2l3.3,10.3
		l-8.7-6.3l-8.7,6.3l3.3-10.3l-8.6-6.2h10.7L304,37z M30.4,62.6L33.8,73h10.6l-8.6,6.3l3.3,10.2l-8.7-6.3l-8.6,6.3L25,79.3L16.3,73
		h10.9L30.4,62.6z M91.2,62.6L94.5,73h10.8l-8.7,6.3l3.2,10.2l-8.6-6.3l-8.7,6.3l3.3-10.3l-8.6-6.3h10.6L91.2,62.6z M152,62.6
		l3.3,10.3H166l-8.6,6.3l3.3,10.2l-8.7-6.3l-8.7,6.3l3.3-10.3l-8.7-6.3h10.8L152,62.6z M212.8,62.6l3.3,10.3h10.8l-8.7,6.3l3.3,10.2
		l-8.7-6.3l-8.7,6.3l3.4-10.3l-8.8-6.3h10.7L212.8,62.6z M273.6,62.6l3.3,10.3h10.7l-8.6,6.3l3.3,10.2l-8.7-6.3l-8.7,6.3l3.3-10.3
		l-8.6-6.3h10.7L273.6,62.6z M334.4,62.6l3.3,10.3h10.8l-8.8,6.3l3.4,10.2l-8.7-6.3l-8.7,6.3l3.4-10.3l-8.8-6.3h10.8L334.4,62.6z
		 M60.8,88.6l3.3,10.2H75l-8.7,6.3l3.3,10.3l-8.7-6.4l-8.7,6.3l3.3-10.2l-8.6-6.3h10.7L60.8,88.6z M121.6,88.6l3.4,10.2h10.7
		l-8.8,6.3l3.4,10.3l-8.7-6.4l-8.7,6.3l3.3-10.2l-8.7-6.3h10.8L121.6,88.6z M182.4,88.6l3.3,10.2h10.8l-8.7,6.3l3.3,10.3l-8.7-6.4
		l-8.7,6.3l3.3-10.2l-8.6-6.3H179L182.4,88.6z M243.2,88.6l3.4,10.2h10.7l-8.7,6.3l3.3,10.3l-8.7-6.4l-8.6,6.3l3.2-10.2l-8.7-6.3
		H240L243.2,88.6z M304,88.6l3.3,10.2h10.8l-8.7,6.3l3.3,10.3L304,109l-8.7,6.3l3.3-10.2l-8.6-6.3h10.7L304,88.6z M30.4,114.5
		l3.4,10.2h10.6l-8.6,6.3l3.3,10.3l-8.7-6.4l-8.6,6.3L25,131l-8.7-6.3h10.9L30.4,114.5z M91.2,114.5l3.3,10.2h10.8l-8.7,6.3
		l3.2,10.2l-8.6-6.3l-8.7,6.3l3.3-10.2l-8.6-6.3h10.6L91.2,114.5z M152,114.5l3.3,10.2H166l-8.6,6.3l3.3,10.3l-8.7-6.4l-8.7,6.3
		l3.3-10.2l-8.7-6.3h10.8L152,114.5z M212.8,114.5l3.3,10.2h10.8l-8.7,6.3l3.3,10.3l-8.7-6.4l-8.7,6.3l3.4-10.2l-8.8-6.3h10.7
		L212.8,114.5z M273.6,114.5l3.3,10.2h10.7L279,131l3.3,10.3l-8.7-6.4l-8.7,6.3l3.3-10.2l-8.6-6.3h10.7L273.6,114.5z M334.4,114.5
		l3.3,10.2h10.8l-8.8,6.3l3.4,10.3l-8.7-6.4l-8.7,6.3L329,131l-8.8-6.3H331L334.4,114.5z M60.8,140.3l3.3,10.3H75l-8.7,6.2l3.3,10.3
		l-8.7-6.4l-8.7,6.4l3.3-10.3l-8.6-6.3h10.7L60.8,140.3z M121.6,140.3l3.4,10.3h10.7l-8.8,6.2l3.4,10.3l-8.7-6.4l-8.7,6.4l3.3-10.3
		l-8.7-6.3h10.8L121.6,140.3z M182.4,140.3l3.3,10.3h10.8l-8.7,6.2l3.3,10.3l-8.7-6.4l-8.7,6.4l3.3-10.3l-8.6-6.3H179L182.4,140.3z
		 M243.2,140.3l3.4,10.3h10.7l-8.7,6.2l3.3,10.3l-8.7-6.4l-8.6,6.4l3.2-10.3l-8.7-6.3H240L243.2,140.3z M304,140.3l3.3,10.3h10.8
		l-8.7,6.2l3.3,10.3l-8.7-6.4l-8.7,6.4l3.3-10.3l-8.6-6.3h10.7L304,140.3z M30.4,166.1l3.4,10.3h10.6l-8.6,6.3l3.3,10.1l-8.7-6.2
		l-8.6,6.2l3.2-10.2l-8.7-6.3h10.9L30.4,166.1z M91.2,166.1l3.3,10.3h10.8l-8.7,6.3l3.3,10.1l-8.7-6.2l-8.7,6.2l3.4-10.2l-8.7-6.3
		h10.6L91.2,166.1z M152,166.1l3.3,10.3H166l-8.6,6.3l3.3,10.1l-8.7-6.2l-8.7,6.2l3.3-10.2l-8.7-6.3h10.8L152,166.1z M212.8,166.1
		l3.3,10.3h10.8l-8.7,6.3l3.3,10.1l-8.7-6.2l-8.7,6.2l3.4-10.2l-8.8-6.3h10.7L212.8,166.1z M273.6,166.1l3.3,10.3h10.7l-8.6,6.3
		l3.3,10.1l-8.7-6.2l-8.7,6.2l3.3-10.2l-8.6-6.3h10.7L273.6,166.1z M334.4,166.1l3.3,10.3h10.8l-8.8,6.3l3.4,10.1l-8.7-6.2l-8.7,6.2
		l3.4-10.2l-8.8-6.3h10.8L334.4,166.1z M60.8,192l3.3,10.2H75l-8.7,6.3l3.3,10.3l-8.7-6.4l-8.7,6.3l3.3-10.2l-8.6-6.3h10.7L60.8,192
		z M121.6,192l3.4,10.2h10.7l-8.8,6.3l3.4,10.3l-8.7-6.4l-8.7,6.3l3.3-10.2l-8.7-6.3h10.8L121.6,192z M182.4,192l3.3,10.2h10.8
		l-8.7,6.3l3.3,10.3l-8.7-6.4l-8.7,6.3l3.3-10.2l-8.6-6.3H179L182.4,192z M243.2,192l3.4,10.2h10.7l-8.7,6.3l3.3,10.3l-8.7-6.4
		l-8.6,6.3l3.2-10.2l-8.7-6.3H240L243.2,192z M304,192l3.3,10.2h10.8l-8.7,6.3l3.3,10.3l-8.7-6.4l-8.7,6.3l3.3-10.2l-8.6-6.3h10.7
		L304,192z M30.4,217.9l3.4,10.2h10.6l-8.6,6.3l3.3,10.2l-8.7-6.3l-8.6,6.3l3.2-10.3l-8.7-6.3h10.9L30.4,217.9z M91.2,217.9
		l3.3,10.2h10.8l-8.7,6.3l3.3,10.2l-8.7-6.3l-8.7,6.3l3.4-10.3l-8.7-6.3h10.6L91.2,217.9z M152,217.9l3.3,10.2H166l-8.4,6.3
		l3.3,10.2l-8.7-6.3l-8.7,6.3l3.3-10.3l-8.7-6.3h10.8L152,217.9z M212.8,217.9l3.3,10.2h10.8l-8.7,6.3l3.3,10.2l-8.7-6.3l-8.7,6.3
		l3.4-10.3l-8.8-6.3h10.7L212.8,217.9z M273.6,217.9l3.3,10.2h10.7l-8.6,6.3l3.3,10.2l-8.7-6.3l-8.7,6.3l3.3-10.3l-8.6-6.3h10.7
		L273.6,217.9z M334.4,217.9l3.3,10.2h10.8l-8.8,6.3l3.4,10.2l-8.7-6.3l-8.7,6.3l3.4-10.3l-8.8-6.3h10.8L334.4,217.9z"/>
</g>
</svg>
